HIERARCHY
ROOT Hips
{
	OFFSET 0.000000 0.000000 0.000000 
	CHANNELS 6 Xposition Yposition Zposition Zrotation Yrotation Xrotation
	JOINT LeftUpLeg
	{
		OFFSET 1.363060 -1.794630 0.839290 
		CHANNELS 3 Zrotation Yrotation Xrotation
		JOINT LeftLeg
		{
			OFFSET 2.448110 -6.726130 0.000000 
			CHANNELS 3 Zrotation Yrotation Xrotation
			JOINT LeftFoot
			{
				OFFSET 2.562200 -7.039590 0.000000 
				CHANNELS 3 Zrotation Yrotation Xrotation
				JOINT LeftToeBase
				{
					OFFSET 0.157640 -0.433110 2.322550 
					CHANNELS 3 Zrotation Yrotation Xrotation
					End Site
					{
						OFFSET 0.000000 0.000000 0.000000 
					}
				}
			}
		}
	}
	JOINT RightUpLeg
	{
		OFFSET -1.305520 -1.794630 0.839290 
		CHANNELS 3 Zrotation Yrotation Xrotation
		JOINT RightLeg
		{
			OFFSET -2.542530 -6.985550 0.000000 
			CHANNELS 3 Zrotation Yrotation Xrotation
			JOINT RightFoot
			{
				OFFSET -2.568260 -7.056230 0.000000 
				CHANNELS 3 Zrotation Yrotation Xrotation
				JOINT RightToeBase
				{
					OFFSET -0.164730 -0.452590 2.363150 
					CHANNELS 3 Zrotation Yrotation Xrotation
					End Site
					{
						OFFSET 0.000000 0.000000 0.000000 
					}
				}
			}
		}
	}
	JOINT Spine
	{
		OFFSET 0.028270 2.035590 -0.193380 
		CHANNELS 3 Zrotation Yrotation Xrotation
		JOINT Spine1
		{
			OFFSET 0.056720 2.048850 -0.042750 
			CHANNELS 3 Zrotation Yrotation Xrotation
			JOINT Neck1
			{
				OFFSET -0.054170 1.746240 0.172020 
				CHANNELS 3 Zrotation Yrotation Xrotation
				JOINT Head
				{
					OFFSET 0.104070 1.761360 -0.123970 
					CHANNELS 3 Zrotation Yrotation Xrotation
					End Site
					{
						OFFSET 0.000000 0.000000 0.000000 
					}
				}
			}
			JOINT LeftArm
			{
				OFFSET 3.362410 1.200890 -0.311210 
				CHANNELS 3 Zrotation Yrotation Xrotation
				JOINT LeftForeArm
				{
					OFFSET 4.983000 -0.000000 -0.000000 
					CHANNELS 3 Zrotation Yrotation Xrotation
					JOINT LeftHand
					{
						OFFSET 3.483560 -0.000000 -0.000000 
						CHANNELS 3 Zrotation Yrotation Xrotation
						JOINT LeftHandIndex1
						{
							OFFSET 0.715260 -0.000000 -0.000000 
							CHANNELS 3 Zrotation Yrotation Xrotation
							End Site
							{
								OFFSET 0.000000 0.000000 0.000000 
							}
						}
					}
				}
			}
			JOINT RightArm
			{
				OFFSET -3.136600 1.374050 -0.404650 
				CHANNELS 3 Zrotation Yrotation Xrotation
				JOINT RightForeArm
				{
					OFFSET -5.241900 -0.000000 -0.000000 
					CHANNELS 3 Zrotation Yrotation Xrotation
					JOINT RightHand
					{
						OFFSET -3.444170 -0.000000 -0.000000 
						CHANNELS 3 Zrotation Yrotation Xrotation
						JOINT RightHandIndex1
						{
							OFFSET -0.622530 -0.000000 -0.000000 
							CHANNELS 3 Zrotation Yrotation Xrotation
							End Site
							{
								OFFSET 0.000000 0.000000 0.000000 
							}
						}
					}
				}
			}
		}
	}
}
MOTION
Frames: 7
Frame Time: 0.041667
-13.819807 17.908132 -36.326842 -0.909817 8.287548 11.077916 -11.340084 -2.122237 -27.121718 3.161359 11.631054 33.630297 2.519845 -25.420308 -24.496436 7.089100 15.406400 49.210300 22.158246 8.946971 -20.103854 -3.573984 -11.160681 33.528162 -2.430129 -11.897542 -36.235295 -0.360000 -3.854700 10.668200 -0.894763 0.906910 -2.617502 -5.209421 0.621915 9.433009 4.058728 9.109752 8.864601 1.017400 4.769900 2.590900 -95.077824 4.498585 46.477207 34.636599 -44.736366 -10.348271 -1.952223 1.171919 -9.715559 -7.125000 0.000000 0.000000 97.980007 -2.788974 47.705156 -23.562964 34.949548 -6.735471 0.413174 -1.099670 -0.637875 7.125000 0.000000 0.000000 
-13.803460 17.910768 -36.326737 -0.920392 8.076158 11.081736 -11.411337 -2.015054 -27.086570 3.142089 11.608408 33.551664 2.540243 -25.259082 -24.552143 7.023200 15.351400 48.962200 22.078553 9.044631 -20.104399 -3.590079 -11.183211 33.606937 -2.446165 -11.775198 -36.234304 -0.357100 -3.839200 10.624600 -0.875071 0.923803 -2.625198 -5.021306 0.617780 9.383952 3.773032 8.411603 7.802969 0.789600 4.386200 2.172000 -95.226952 4.510825 46.339974 34.414556 -44.594776 -10.246403 -1.951412 1.243600 -9.599817 -7.125000 0.000000 0.000000 98.034994 -2.727210 47.344294 -23.379706 34.761864 -6.653599 0.401270 -1.097341 -0.156188 7.125000 0.000000 0.000000 
-13.788061 17.908764 -36.357639 -1.003478 7.844289 11.740922 -11.297446 -2.423561 -27.530794 3.118932 11.577428 33.459329 2.571198 -24.888043 -24.604390 7.034700 15.361100 49.005600 21.948196 9.229390 -21.091781 -3.613174 -11.199948 33.696533 -2.418100 -11.523953 -35.897863 -0.338700 -3.740000 10.346200 -0.856177 0.998396 -2.824433 -4.866574 0.634166 9.153559 3.606089 7.679530 7.033619 0.642700 3.995600 1.906200 -95.383514 4.430539 46.307891 34.083977 -44.339047 -10.044022 -1.849261 1.315261 -9.582966 -7.125000 0.000000 0.000000 98.020663 -2.644800 47.109371 -23.239835 34.615478 -6.591917 0.390957 -1.094220 0.053408 7.125000 0.000000 0.000000 
-13.774139 17.921315 -36.355003 -1.034577 7.580556 11.759010 -11.430925 -2.096214 -27.768280 3.110544 11.575815 33.442085 2.566453 -24.709637 -24.524478 7.034400 15.360800 49.004200 21.903607 9.654710 -20.917277 -3.606983 -11.183713 33.658747 -2.401126 -11.703415 -35.930846 -0.351500 -3.809400 10.540900 -0.831063 1.043867 -2.833379 -4.640621 0.640476 9.119725 3.221650 6.949043 6.528539 0.427000 3.608000 1.751200 -95.535473 4.377998 46.245529 33.729551 -44.071613 -9.843689 -1.786865 1.370376 -9.476837 -7.125000 0.000000 0.000000 98.015481 -2.645918 46.759316 -23.172729 34.550503 -6.570038 0.382600 -1.091049 0.626207 7.125000 0.000000 0.000000 
-13.755154 17.905495 -36.358272 -1.035619 7.363033 11.835460 -11.365694 -2.456793 -27.371716 3.099199 11.555651 33.384885 2.638954 -24.485653 -24.860138 7.110100 15.423900 49.289400 21.782617 10.085466 -20.885133 -3.613721 -11.195284 33.697990 -2.404691 -11.799036 -36.019653 -0.371000 -3.912300 10.830100 -0.819635 1.083673 -2.848181 -4.448902 0.645131 9.104246 3.139144 6.345006 6.135921 0.354800 3.293500 1.619700 -95.686692 4.284292 46.189780 33.368087 -43.842945 -9.708362 -1.815580 1.489705 -9.563199 -7.125000 0.000000 0.000000 98.008071 -2.616578 46.486531 -23.066312 34.441677 -6.528613 0.371780 -1.087095 1.123052 7.125000 0.000000 0.000000 
-13.739650 17.925218 -36.358272 -1.059159 7.118804 11.882045 -11.539583 -2.165061 -27.752365 3.084524 11.547646 33.349817 2.642263 -24.128102 -24.785645 6.956200 15.294900 48.708300 21.706994 10.967841 -20.556765 -3.603495 -11.171805 33.646952 -2.338455 -12.421997 -36.111039 -0.381800 -3.968300 10.987400 -0.799212 1.128303 -2.858473 -4.239282 0.653146 9.073797 3.127028 5.759074 6.354663 0.349400 3.004700 1.783200 -95.831957 4.246481 46.045830 33.061713 -43.605593 -9.534614 -1.751224 1.525439 -9.089777 -7.125000 0.000000 0.000000 98.079223 -2.912480 45.688827 -23.299793 34.701751 -6.656873 0.370932 -1.080868 2.389257 7.125000 0.000000 0.000000 
-13.719400 17.928593 -36.363335 -1.095835 6.918063 12.013341 -11.566858 -2.309907 -27.762878 3.053351 11.506969 33.224646 2.670850 -23.758209 -24.847282 6.945900 15.286100 48.669300 21.639434 10.589874 -20.952074 -3.621732 -11.195389 33.725424 -2.346670 -11.956553 -35.814293 -0.320900 -3.641400 10.069800 -0.784240 1.194747 -2.897720 -4.089188 0.677029 9.020083 3.139020 5.342890 5.565831 0.318300 2.776400 1.448500 -95.955697 4.192343 46.062712 32.808124 -43.450174 -9.450979 -1.758588 1.624527 -9.270922 -7.125000 0.000000 0.000000 97.996421 -2.561783 45.854901 -22.836395 34.203306 -6.437562 0.347034 -1.074747 2.575148 7.125000 0.000000 0.000000 
